<?xml version="1.0" encoding="UTF-8" standalone="no"?>
<!-- Created with Inkscape (http://www.inkscape.org/) -->

<svg
   width="512"
   height="512"
   viewBox="0 0 135.46667 135.46667"
   version="1.1"
   id="svg5"
   inkscape:version="1.1.1 (3bf5ae0d25, 2021-09-20)"
   sodipodi:docname="yiffOSLogo-Full.svg"
   inkscape:export-filename="/home/evie/yiffOS-branding/yiffOSLogo.png"
   inkscape:export-xdpi="96"
   inkscape:export-ydpi="96"
   xmlns:inkscape="http://www.inkscape.org/namespaces/inkscape"
   xmlns:sodipodi="http://sodipodi.sourceforge.net/DTD/sodipodi-0.dtd"
   xmlns:xlink="http://www.w3.org/1999/xlink"
   xmlns="http://www.w3.org/2000/svg"
   xmlns:svg="http://www.w3.org/2000/svg">
  <sodipodi:namedview
     id="namedview7"
     pagecolor="#505050"
     bordercolor="#eeeeee"
     borderopacity="1"
     inkscape:pageshadow="0"
     inkscape:pageopacity="0"
     inkscape:pagecheckerboard="0"
     inkscape:document-units="px"
     showgrid="false"
     inkscape:zoom="1.4142136"
     inkscape:cx="211.77848"
     inkscape:cy="326.68332"
     inkscape:window-width="1920"
     inkscape:window-height="1011"
     inkscape:window-x="0"
     inkscape:window-y="32"
     inkscape:window-maximized="1"
     inkscape:current-layer="layer1" />
  <defs
     id="defs2">
    <linearGradient
       inkscape:collect="always"
       id="linearGradient3191-1">
      <stop
         style="stop-color:#725cff;stop-opacity:1;"
         offset="0"
         id="stop3187" />
      <stop
         style="stop-color:#a380ff;stop-opacity:1"
         offset="1"
         id="stop3189" />
    </linearGradient>
    <linearGradient
       inkscape:collect="always"
       xlink:href="#linearGradient3191-1"
       id="linearGradient4141"
       gradientUnits="userSpaceOnUse"
       x1="209.55458"
       y1="75.300308"
       x2="512.08459"
       y2="512.08582"
       gradientTransform="matrix(0.30925262,0,0,0.30925262,-22.868419,-22.885741)" />
  </defs>
  <g
     inkscape:label="Layer 1"
     inkscape:groupmode="layer"
     id="layer1">
    <path
       style="fill:none;stroke:none;stroke-width:0.264583px;stroke-linecap:butt;stroke-linejoin:miter;stroke-opacity:1"
       d="m 22.578031,97.876003 17.137032,14.526827 21.617501,-7.03813 10.629659,0.41104 44.343237,30.06701 19.1836,-0.35338 0.0152,-69.497094 -80.480694,-46.758101 3.409402,31.742756 -10.117852,12.014102 -5.787245,18.063023 z"
       id="path54" />
    <path
       style="fill:url(#linearGradient4141);fill-opacity:1;fill-rule:nonzero;stroke:#33213a;stroke-width:0.218675;stroke-opacity:1"
       d="m 87.254931,117.94689 c -25.8672,-17.59243 -25.893348,-17.60949 -27.006317,-17.61562 -0.612725,-0.003 -3.467257,-0.098 -6.343402,-0.21021 l -5.229357,-0.204075 -11.171241,3.614725 c -6.144184,1.98811 -11.736433,3.7981 -12.427226,4.02222 l -1.255987,0.40747 -2.483787,-2.00793 c -1.366083,-1.10436 -5.785773,-4.79631 -9.821535,-8.204322 L 4.1783319,91.552756 4.9781448,90.842217 C 5.4180418,90.45142 10.501328,86.161162 16.274338,81.308311 22.047349,76.455463 26.843814,72.38012 26.933148,72.252 c 0.08934,-0.128127 1.448363,-4.169097 3.020065,-8.979939 4.492661,-13.75166 3.306572,-11.446627 10.020029,-19.472827 l 5.76758,-6.895369 -0.149242,-1.57644 C 45.415643,33.469049 42.261928,3.234188 42.066722,1.5344282 L 41.93296,0.36966659 42.442801,0.68986088 c 0.280414,0.176107 3.70796,2.16523722 7.616768,4.42028902 6.722874,3.8785292 13.95431,8.0672941 21.320776,12.3499231 1.804065,1.048828 6.133824,3.558001 9.621684,5.57594 3.487859,2.017935 7.128792,4.133544 8.090961,4.701344 0.962168,0.567804 4.012679,2.341952 6.778913,3.942554 2.766234,1.600599 8.522847,4.94134 12.792467,7.423869 4.26962,2.482528 9.239,5.369593 11.04307,6.415699 1.80406,1.046106 6.03542,3.503334 9.40301,5.460511 l 6.12289,3.558499 0.0552,40.39343 0.0553,40.393431 -10.66097,0.003 c -5.86353,0.002 -10.85777,0.0536 -11.09831,0.11552 -0.3199,0.0823 -7.39105,-4.61673 -26.329619,-17.49696 z"
       id="path292" />
    <path
       style="fill:none;stroke:none;stroke-width:0.707107;fill-opacity:1"
       d="M 423.91051,501.53399 C 326.25094,435.08858 293.92395,413.1458 283.44918,406.19221 l -11.41435,-7.57732 -14.04149,-0.47522 c -7.72283,-0.26137 -17.22348,-0.53607 -21.11257,-0.61044 l -7.07107,-0.13522 -29.34493,9.6487 c -16.13971,5.30678 -33.90052,11.08882 -39.46847,12.84896 l -10.12355,3.20027 -5.78636,-4.68604 C 122.74086,400.30955 87.24638,369.96707 87.825038,369.456 c 0.30982,-0.27363 16.640212,-14.02707 36.289752,-30.56318 19.64954,-16.53611 36.10789,-30.52527 36.57411,-31.08702 0.82659,-0.99599 4.16165,-10.84354 16.78247,-49.5542 l 6.17313,-18.93427 5.85932,-7.22869 c 3.22262,-3.97577 11.62063,-14.06994 18.66225,-22.43148 7.04161,-8.36154 12.9845,-15.86915 13.20641,-16.68357 0.30229,-1.10941 -7.82501,-82.36886 -11.39767,-113.95769 l -0.42023,-3.715592 16.13797,9.299462 c 8.87588,5.114704 40.00282,23.14432 69.17098,40.06581 72.02803,41.78603 77.88415,45.18617 115.96551,67.33106 18.27871,10.62935 37.52969,21.80765 42.77996,24.84067 5.25027,3.03302 20.36467,11.80647 33.58757,19.49654 l 24.04163,13.98195 0.17865,130.63798 0.17865,130.63797 h -33.85461 c -18.62004,0 -34.76943,0.17257 -35.88754,0.3835 -1.74281,0.32875 -4.3035,-1.16136 -17.94284,-10.44126 z"
       id="path331"
       transform="scale(0.26458334)" />
  </g>
</svg>
